<svg width="1239" height="829" viewBox="0 0 1239 829" fill="none" xmlns="http://www.w3.org/2000/svg">
<path opacity="0.0416667" d="M230.57 688.985C212.277 741.115 269.203 775.03 278.329 782.003C308.361 786.828 381.597 791.053 434.28 769.364C500.134 742.252 493.536 726.029 540.666 667.91C587.797 609.791 765.07 550.728 822.596 538.089C843.864 533.417 933.855 524.701 1008.5 462.634C1083.15 400.567 1129.37 251.861 1127.36 204.884C1125.34 157.908 1089.93 103.222 1056.8 69.803C1023.66 36.3839 966.361 18.2068 900.393 35.3467C834.426 52.4866 767.532 208.87 711.053 229.259C654.575 249.648 684.782 164.727 573.147 203.465C461.513 242.202 430.424 394.282 389.981 518.242C349.538 642.203 248.863 636.855 230.57 688.985Z" stroke="url(#paint0_linear_3_2456)" stroke-width="4"/>
<path opacity="0.0833333" d="M221.396 687.119C202.376 738.989 258.823 773.695 267.852 780.795C297.814 786.038 370.983 791.286 423.963 770.335C490.189 744.145 483.819 727.831 531.756 670.376C579.694 612.92 757.774 556.338 815.471 544.504C836.802 540.129 926.906 532.671 1002.41 471.652C1077.91 410.633 1126.21 262.587 1124.85 215.587C1123.5 168.587 1088.85 113.412 1056.19 79.5334C1023.52 45.6549 966.481 26.6796 900.28 42.8968C834.079 59.114 765.009 214.548 708.251 234.147C651.493 253.746 682.883 169.254 570.719 206.429C458.554 243.604 425.345 395.235 383.175 518.619C341.005 642.003 240.415 635.25 221.396 687.119Z" stroke="url(#paint1_linear_3_2456)" stroke-width="4"/>
<path opacity="0.125" d="M212.195 685.178C192.454 736.777 248.41 772.268 257.339 779.494C287.225 785.154 360.313 791.423 413.581 771.214C480.166 745.951 474.024 729.55 522.759 672.769C571.494 615.989 750.347 561.899 808.204 550.872C829.594 546.795 919.793 540.595 996.142 480.637C1072.49 420.678 1122.85 273.32 1122.15 226.306C1121.45 179.292 1087.58 123.638 1055.39 89.307C1023.2 54.9756 966.429 35.2058 900.008 50.4971C833.588 65.7884 762.353 220.243 705.328 239.047C648.302 257.852 680.868 173.807 568.196 209.412C455.523 245.018 420.2 396.17 376.311 518.953C332.423 641.736 231.937 633.579 212.195 685.178Z" stroke="url(#paint2_linear_3_2456)" stroke-width="4"/>
<path opacity="0.166667" d="M202.969 683.162C182.509 734.48 237.965 770.749 246.791 778.099C276.595 784.176 349.589 791.465 403.134 772.001C470.066 747.671 464.153 731.185 513.676 675.091C563.199 618.996 742.79 567.409 800.795 557.19C822.24 553.412 912.516 548.473 989.695 489.586C1066.87 430.699 1119.29 284.059 1119.24 237.039C1119.2 190.02 1086.11 133.899 1054.4 99.1218C1022.69 64.3444 966.204 43.7839 899.576 58.1463C832.949 72.5088 759.565 225.953 702.282 243.96C644.999 261.966 678.736 178.385 565.577 212.413C452.419 246.442 414.989 397.086 369.39 519.244C323.792 641.403 223.429 631.844 202.969 683.162Z" stroke="url(#paint3_linear_3_2456)" stroke-width="4"/>
<path opacity="0.208333" d="M193.719 681.068C172.544 732.096 227.488 769.135 236.211 776.607C265.927 783.1 338.813 791.408 392.624 772.693C459.889 749.3 454.207 732.733 504.508 677.336C554.81 621.938 735.103 572.863 793.245 563.456C814.741 559.977 905.077 556.299 983.071 498.495C1061.06 440.692 1115.52 294.798 1116.13 247.782C1116.74 200.767 1084.44 144.189 1053.22 108.973C1022 73.7558 965.807 52.4087 898.985 65.8395C832.163 79.2702 756.644 231.675 699.116 248.88C641.587 266.085 676.487 182.983 562.865 215.428C449.242 247.873 409.712 397.98 362.412 519.49C315.113 641 214.893 630.041 193.719 681.068Z" stroke="url(#paint4_linear_3_2456)" stroke-width="4"/>
<path opacity="0.25" d="M184.445 678.904C162.56 729.631 216.982 767.434 225.6 775.027C255.222 781.935 327.984 791.259 382.052 773.297C449.637 750.845 444.186 734.201 495.256 679.511C546.327 624.821 727.287 578.268 785.555 569.674C807.097 566.496 897.477 564.079 976.27 507.37C1055.06 450.661 1111.55 305.542 1112.82 258.539C1114.08 211.537 1082.58 154.514 1051.85 118.865C1021.12 83.2155 965.235 61.0859 898.233 73.5824C831.23 86.0789 753.59 237.415 695.827 253.815C638.064 270.215 674.121 187.608 560.056 218.463C445.992 249.319 404.37 398.859 355.378 519.697C306.387 640.535 206.33 628.177 184.445 678.904Z" stroke="url(#paint5_linear_3_2456)" stroke-width="4"/>
<path opacity="0.291667" d="M175.149 676.657C152.558 727.074 206.447 765.633 214.957 773.346C244.481 780.666 317.106 791.005 371.419 773.8C439.31 752.294 434.093 735.575 485.922 681.604C537.75 627.632 719.343 583.611 777.726 575.83C799.31 572.954 889.714 571.799 969.292 516.196C1048.87 460.592 1107.37 316.275 1109.3 269.295C1111.22 222.315 1080.52 164.858 1050.29 128.783C1020.06 92.7085 964.489 69.8008 897.319 81.3605C830.148 92.9203 750.403 243.157 692.416 258.749C634.43 274.341 671.637 192.245 557.152 221.506C442.668 250.766 398.962 399.71 348.288 519.852C297.615 639.994 197.74 626.241 175.149 676.657Z" stroke="url(#paint6_linear_3_2456)" stroke-width="4"/>
<path opacity="0.333333" d="M165.832 674.336C142.539 724.432 195.884 763.74 204.287 771.571C233.705 779.303 306.178 790.655 360.726 774.21C428.911 753.654 423.928 736.864 476.505 683.622C529.083 630.379 711.273 588.897 769.758 581.932C791.38 579.357 881.792 579.465 962.138 524.978C1042.48 470.491 1103 327.005 1105.58 280.057C1108.16 233.108 1078.26 175.228 1048.54 138.735C1018.82 102.241 963.568 78.5598 896.243 89.1806C828.917 99.8014 747.083 248.91 688.884 263.691C630.685 278.472 669.035 196.904 554.153 224.563C439.271 252.222 393.49 400.541 341.144 519.964C288.798 639.386 189.125 624.24 165.832 674.336Z" stroke="url(#paint7_linear_3_2456)" stroke-width="4"/>
<path opacity="0.375" d="M156.495 671.939C132.505 721.705 185.296 761.753 193.588 769.701C222.895 777.843 295.203 790.205 349.976 774.524C418.441 754.922 413.693 738.064 467.008 685.561C520.324 633.057 703.075 594.123 761.652 587.976C783.308 585.703 873.709 587.073 954.808 533.713C1035.91 480.353 1098.42 337.727 1101.65 290.819C1104.89 243.911 1075.8 185.618 1046.59 148.714C1017.38 111.809 962.472 87.3585 895.004 97.0382C827.537 106.718 743.629 254.67 685.229 268.636C626.83 282.603 666.315 201.578 551.058 227.631C435.801 253.683 387.954 401.349 333.945 520.029C279.936 638.709 180.485 622.173 156.495 671.939Z" stroke="url(#paint8_linear_3_2456)" stroke-width="4"/>
<path opacity="0.416667" d="M147.139 669.46C122.456 718.886 174.683 759.668 182.863 767.73C212.054 776.28 284.182 789.652 339.168 774.736C407.901 756.092 403.388 739.17 457.431 687.416C511.475 635.662 694.752 599.283 753.409 593.954C775.094 591.984 865.468 594.616 947.304 542.394C1029.14 490.172 1093.64 348.431 1097.53 301.573C1101.42 254.715 1073.14 196.022 1044.45 158.713C1015.77 121.404 961.199 96.1895 893.603 104.926C826.007 113.663 740.041 260.429 681.452 273.579C622.864 286.729 663.476 206.263 547.867 230.704C432.257 255.144 382.353 402.128 326.692 520.042C271.032 637.957 171.821 620.034 147.139 669.46Z" stroke="url(#paint9_linear_3_2456)" stroke-width="4"/>
<path opacity="0.458333" d="M137.765 666.906C112.394 715.982 164.046 757.489 172.114 765.665C201.182 774.622 273.117 788.999 328.306 774.853C397.292 757.17 393.016 740.186 447.776 689.192C502.537 638.198 686.304 604.382 745.03 599.872C766.741 598.205 857.069 602.099 939.626 551.024C1022.18 499.95 1088.65 359.124 1093.2 312.324C1097.74 265.525 1070.29 206.443 1042.12 168.737C1013.96 131.032 959.75 105.057 892.038 112.85C824.327 120.642 736.32 266.193 677.554 278.524C618.787 290.854 660.519 210.964 544.58 233.788C428.64 256.611 376.688 402.884 319.387 520.01C262.086 637.136 163.135 617.829 137.765 666.906Z" stroke="url(#paint10_linear_3_2456)" stroke-width="4"/>
<path opacity="0.5" d="M128.374 664.275C102.321 712.993 153.388 755.217 161.34 763.505C190.281 772.866 262.008 788.246 317.389 774.872C386.615 758.154 382.577 741.113 438.044 690.888C493.511 640.663 677.733 609.416 736.516 605.727C758.248 604.363 848.513 609.518 931.775 559.601C1015.04 509.684 1083.47 369.8 1088.66 323.068C1093.86 276.337 1067.24 216.878 1039.6 178.782C1011.96 140.687 958.123 113.958 890.31 120.804C822.496 127.65 732.466 271.958 673.533 283.468C614.599 294.977 657.443 215.676 541.196 236.879C424.949 258.082 370.96 403.615 312.029 519.929C253.098 636.244 154.427 615.557 128.374 664.275Z" stroke="url(#paint11_linear_3_2456)" stroke-width="4"/>
<path opacity="0.541667" d="M118.967 661.562C92.2363 709.911 142.709 752.844 150.545 761.242C179.352 771.007 250.857 787.387 306.42 774.787C375.872 759.038 372.072 741.941 428.236 692.496C484.399 643.051 669.039 614.378 727.867 611.511C749.616 610.45 839.8 616.865 923.751 568.115C1007.7 519.365 1078.08 380.45 1083.93 333.796C1089.78 287.142 1063.98 227.317 1036.88 188.839C1009.78 150.362 956.319 122.884 888.417 128.782C820.514 134.681 728.478 277.718 669.39 288.403C610.302 299.088 654.248 220.394 537.717 239.972C421.185 259.55 365.169 404.314 304.62 519.795C244.071 635.275 145.698 613.213 118.967 661.562Z" stroke="url(#paint12_linear_3_2456)" stroke-width="4"/>
<path opacity="0.583333" d="M109.546 658.776C82.1426 706.747 132.011 750.381 139.729 758.888C168.397 769.054 239.666 786.43 295.399 774.608C365.065 759.829 361.504 742.681 418.352 694.025C475.2 645.369 660.223 619.277 719.085 617.231C740.847 616.475 830.933 624.148 915.556 576.575C1000.18 529.002 1072.49 391.083 1078.99 344.515C1085.49 297.947 1060.53 237.768 1033.97 198.916C1007.41 160.063 954.337 131.842 886.359 136.792C818.381 141.742 724.356 283.48 665.125 293.339C605.894 303.198 650.934 225.125 534.141 243.074C417.348 261.022 359.316 404.991 297.16 519.615C235.004 634.238 136.949 610.805 109.546 658.776Z" stroke="url(#paint13_linear_3_2456)" stroke-width="4"/>
<path opacity="0.625" d="M100.111 655.909C72.0405 703.493 121.295 747.818 128.893 756.432C157.417 766.997 228.436 785.368 284.329 774.324C354.194 760.52 350.873 743.324 408.395 695.466C465.917 647.608 651.285 624.103 710.171 622.878C731.941 622.426 821.911 631.356 907.19 584.969C992.47 538.583 1066.7 401.687 1073.85 355.214C1081 308.741 1056.88 248.219 1030.87 209C1004.85 169.781 952.177 140.821 884.137 144.821C816.096 148.822 720.101 289.233 660.738 298.264C601.375 307.295 647.501 229.859 530.469 246.175C413.436 262.492 353.4 405.636 289.65 519.381C225.9 633.125 128.181 608.325 100.111 655.909Z" stroke="url(#paint14_linear_3_2456)" stroke-width="4"/>
<path opacity="0.666667" d="M90.6635 652.961C61.9316 700.149 110.562 745.158 118.04 753.877C146.413 764.839 217.169 784.199 273.21 773.937C343.262 761.11 340.181 743.869 398.365 696.819C456.55 649.769 642.228 628.854 701.125 628.452C722.9 628.304 812.736 638.489 898.655 593.297C984.574 548.106 1060.71 412.26 1068.5 365.892C1076.3 319.523 1053.04 258.67 1027.57 219.092C1002.1 179.513 949.839 149.821 881.749 152.871C813.659 155.92 715.713 294.978 656.23 303.179C596.746 311.381 643.949 234.596 526.7 249.277C409.451 263.957 347.422 406.25 282.09 519.093C216.758 631.936 119.395 605.774 90.6635 652.961Z" stroke="url(#paint15_linear_3_2456)" stroke-width="4"/>
<path opacity="0.708333" d="M81.2046 649.937C51.8167 696.719 99.8144 742.402 107.169 751.225C135.386 762.582 205.865 782.928 262.044 773.45C332.268 761.602 329.429 744.32 388.264 698.087C447.1 651.854 633.052 633.533 691.949 633.954C713.724 634.109 803.409 645.547 889.95 601.56C976.492 557.573 1054.51 422.803 1062.96 376.548C1071.4 330.293 1048.99 269.121 1024.08 229.191C999.166 189.261 947.321 158.841 879.195 160.94C811.069 163.039 711.192 300.716 651.599 308.086C592.007 315.456 640.278 239.337 522.835 252.38C405.393 265.422 341.383 406.834 274.482 518.754C207.581 630.674 110.593 603.155 81.2046 649.937Z" stroke="url(#paint16_linear_3_2456)" stroke-width="4"/>
<path opacity="0.75" d="M71.7358 646.833C41.6975 693.2 89.0528 739.549 96.2835 748.473C124.339 760.224 194.528 781.552 250.833 772.859C321.216 761.992 318.618 744.672 378.093 699.265C437.569 653.858 623.759 638.136 682.644 639.378C704.414 639.838 793.931 652.528 881.078 609.753C968.225 566.978 1048.12 433.311 1057.21 387.178C1066.3 341.045 1044.74 279.567 1020.39 239.293C996.04 199.018 944.624 167.878 876.476 169.026C808.328 170.173 706.537 306.442 646.848 312.979C587.158 319.516 636.487 244.079 518.874 255.48C401.261 266.882 335.283 407.387 266.826 518.362C198.369 629.337 101.774 600.466 71.7358 646.833Z" stroke="url(#paint17_linear_3_2456)" stroke-width="4"/>
<path opacity="0.791667" d="M62.2575 643.649C31.5748 689.591 78.2783 736.597 85.3837 745.622C113.273 757.763 183.156 780.069 239.578 772.162C310.105 762.28 307.749 744.925 367.853 700.353C427.957 655.781 614.348 642.659 673.21 644.724C694.972 645.488 784.303 659.426 872.039 617.872C959.774 576.318 1041.53 443.779 1051.26 397.778C1060.99 351.777 1040.3 290.003 1016.51 249.393C992.724 208.783 941.748 176.928 873.591 177.123C805.433 177.319 701.75 312.153 641.975 317.857C582.2 323.56 632.577 248.819 514.816 258.577C397.055 268.335 329.122 407.905 259.122 517.913C189.122 627.922 92.9402 597.706 62.2575 643.649Z" stroke="url(#paint18_linear_3_2456)" stroke-width="4"/>
<path opacity="0.833333" d="M52.7715 640.386C21.4503 685.896 67.4929 733.549 74.4716 742.672C102.188 755.201 171.754 778.481 228.281 771.363C298.939 762.466 296.825 745.08 357.545 701.352C418.266 657.623 604.822 647.105 663.65 649.992C685.399 651.059 774.526 666.243 862.834 625.918C951.141 585.593 1034.74 454.209 1045.11 408.348C1055.48 362.487 1035.65 300.431 1012.44 259.492C989.219 218.554 938.693 185.99 870.539 185.234C802.385 184.479 696.83 317.852 636.981 322.72C577.132 327.588 628.548 253.558 510.663 261.671C392.777 269.783 322.902 408.391 251.373 517.412C179.843 626.432 84.0926 594.876 52.7715 640.386Z" stroke="url(#paint19_linear_3_2456)" stroke-width="4"/>
<path opacity="0.875" d="M43.2782 637.044C11.3247 682.112 56.6975 730.404 63.5481 739.623C91.0874 752.538 160.321 776.786 216.941 770.459C287.717 762.549 285.846 745.136 347.171 702.259C408.496 659.382 595.181 651.47 653.963 655.178C675.695 656.548 764.602 672.976 853.463 633.888C942.325 594.8 1027.75 464.595 1038.76 418.884C1049.77 373.172 1030.81 310.845 1008.17 269.586C985.524 228.328 935.458 195.062 867.321 193.354C799.184 191.647 691.777 323.534 631.866 327.566C571.955 331.598 624.4 258.292 506.412 264.759C388.425 271.225 316.621 408.843 243.577 516.855C170.533 624.866 75.2317 591.976 43.2782 637.044Z" stroke="url(#paint20_linear_3_2456)" stroke-width="4"/>
<path opacity="0.916667" d="M33.7794 633.621C1.19973 678.238 45.8938 727.159 52.6151 736.473C79.9713 749.771 148.86 774.984 205.563 769.447C276.442 762.527 274.815 745.089 336.732 703.073C398.65 661.056 585.427 655.752 644.151 660.28C665.862 661.954 754.531 679.62 843.93 641.777C933.329 603.934 1020.56 474.935 1032.21 429.381C1043.86 383.828 1025.77 321.242 1003.71 279.671C981.64 238.1 932.043 204.138 863.937 201.48C795.831 198.822 686.592 329.196 626.631 332.391C566.67 335.586 620.133 263.02 502.066 267.838C384 272.656 310.282 409.259 235.737 516.24C161.191 623.221 66.3591 589.003 33.7794 633.621Z" stroke="url(#paint21_linear_3_2456)" stroke-width="4"/>
<path opacity="0.958333" d="M24.2756 630.121C-8.92384 674.279 35.0829 723.819 41.6735 733.226C68.8413 746.905 137.371 773.077 194.146 768.333C265.115 762.402 263.731 744.943 326.229 703.796C388.727 662.648 575.561 659.952 634.216 665.299C655.901 667.276 744.315 686.179 834.233 649.588C924.152 612.996 1013.18 485.228 1025.46 439.842C1037.75 394.455 1020.53 331.623 999.049 289.748C977.566 247.873 928.448 213.222 860.386 209.613C792.323 206.004 681.275 334.84 621.275 337.198C561.275 339.555 615.746 267.743 497.624 270.912C379.502 274.081 303.884 409.642 227.852 515.571C151.82 621.501 57.4751 585.962 24.2756 630.121Z" stroke="url(#paint22_linear_3_2456)" stroke-width="4"/>
<path d="M14.7685 626.54C-19.0443 670.231 24.2664 720.38 30.7251 729.878C57.6993 743.935 125.857 771.061 182.693 767.11C253.737 762.171 252.598 744.695 315.664 704.424C378.731 664.152 565.583 664.065 624.158 670.231C645.813 672.51 733.955 692.646 824.375 657.314C914.796 621.981 1005.6 495.468 1018.51 450.258C1031.43 405.048 1015.09 341.981 994.199 299.81C973.303 257.639 924.674 222.306 856.668 217.747C788.663 213.188 675.827 340.461 615.8 341.981C555.773 343.5 611.241 272.456 493.086 273.975C374.931 275.495 297.428 409.986 219.925 514.844C142.421 619.701 48.5812 582.849 14.7685 626.54Z" stroke="url(#paint23_linear_3_2456)" stroke-width="4"/>
<defs>
<linearGradient id="paint0_linear_3_2456" x1="573.832" y1="143.853" x2="795.926" y2="732.341" gradientUnits="userSpaceOnUse">
<stop stop-color="#D8D8D8"/>
<stop offset="1" stop-color="#CECECE"/>
</linearGradient>
<linearGradient id="paint1_linear_3_2456" x1="572.235" y1="146.833" x2="786.092" y2="738.364" gradientUnits="userSpaceOnUse">
<stop stop-color="#D8D8D8"/>
<stop offset="1" stop-color="#CECECE"/>
</linearGradient>
<linearGradient id="paint2_linear_3_2456" x1="570.544" y1="149.843" x2="776.121" y2="744.303" gradientUnits="userSpaceOnUse">
<stop stop-color="#D8D8D8"/>
<stop offset="1" stop-color="#CECECE"/>
</linearGradient>
<linearGradient id="paint3_linear_3_2456" x1="568.757" y1="152.883" x2="766.014" y2="750.154" gradientUnits="userSpaceOnUse">
<stop stop-color="#D8D8D8"/>
<stop offset="1" stop-color="#CECECE"/>
</linearGradient>
<linearGradient id="paint4_linear_3_2456" x1="566.875" y1="155.948" x2="755.774" y2="755.915" gradientUnits="userSpaceOnUse">
<stop stop-color="#D8D8D8"/>
<stop offset="1" stop-color="#CECECE"/>
</linearGradient>
<linearGradient id="paint5_linear_3_2456" x1="564.897" y1="159.045" x2="745.4" y2="761.591" gradientUnits="userSpaceOnUse">
<stop stop-color="#D8D8D8"/>
<stop offset="1" stop-color="#CECECE"/>
</linearGradient>
<linearGradient id="paint6_linear_3_2456" x1="562.822" y1="162.161" x2="734.895" y2="767.169" gradientUnits="userSpaceOnUse">
<stop stop-color="#D8D8D8"/>
<stop offset="1" stop-color="#CECECE"/>
</linearGradient>
<linearGradient id="paint7_linear_3_2456" x1="560.651" y1="165.302" x2="724.26" y2="772.654" gradientUnits="userSpaceOnUse">
<stop stop-color="#D8D8D8"/>
<stop offset="1" stop-color="#CECECE"/>
</linearGradient>
<linearGradient id="paint8_linear_3_2456" x1="558.383" y1="168.467" x2="713.495" y2="778.044" gradientUnits="userSpaceOnUse">
<stop stop-color="#D8D8D8"/>
<stop offset="1" stop-color="#CECECE"/>
</linearGradient>
<linearGradient id="paint9_linear_3_2456" x1="556.017" y1="171.648" x2="702.603" y2="783.331" gradientUnits="userSpaceOnUse">
<stop stop-color="#D8D8D8"/>
<stop offset="1" stop-color="#CECECE"/>
</linearGradient>
<linearGradient id="paint10_linear_3_2456" x1="553.553" y1="174.852" x2="691.585" y2="788.522" gradientUnits="userSpaceOnUse">
<stop stop-color="#D8D8D8"/>
<stop offset="1" stop-color="#CECECE"/>
</linearGradient>
<linearGradient id="paint11_linear_3_2456" x1="550.992" y1="178.074" x2="680.442" y2="793.612" gradientUnits="userSpaceOnUse">
<stop stop-color="#D8D8D8"/>
<stop offset="1" stop-color="#CECECE"/>
</linearGradient>
<linearGradient id="paint12_linear_3_2456" x1="548.333" y1="181.309" x2="669.176" y2="798.594" gradientUnits="userSpaceOnUse">
<stop stop-color="#D8D8D8"/>
<stop offset="1" stop-color="#CECECE"/>
</linearGradient>
<linearGradient id="paint13_linear_3_2456" x1="545.575" y1="184.565" x2="657.788" y2="803.477" gradientUnits="userSpaceOnUse">
<stop stop-color="#D8D8D8"/>
<stop offset="1" stop-color="#CECECE"/>
</linearGradient>
<linearGradient id="paint14_linear_3_2456" x1="542.718" y1="187.832" x2="646.279" y2="808.25" gradientUnits="userSpaceOnUse">
<stop stop-color="#D8D8D8"/>
<stop offset="1" stop-color="#CECECE"/>
</linearGradient>
<linearGradient id="paint15_linear_3_2456" x1="539.763" y1="191.11" x2="634.651" y2="812.914" gradientUnits="userSpaceOnUse">
<stop stop-color="#D8D8D8"/>
<stop offset="1" stop-color="#CECECE"/>
</linearGradient>
<linearGradient id="paint16_linear_3_2456" x1="536.709" y1="194.401" x2="622.906" y2="817.469" gradientUnits="userSpaceOnUse">
<stop stop-color="#D8D8D8"/>
<stop offset="1" stop-color="#CECECE"/>
</linearGradient>
<linearGradient id="paint17_linear_3_2456" x1="533.556" y1="197.701" x2="611.046" y2="821.912" gradientUnits="userSpaceOnUse">
<stop stop-color="#D8D8D8"/>
<stop offset="1" stop-color="#CECECE"/>
</linearGradient>
<linearGradient id="paint18_linear_3_2456" x1="530.304" y1="201.009" x2="599.07" y2="826.24" gradientUnits="userSpaceOnUse">
<stop stop-color="#D8D8D8"/>
<stop offset="1" stop-color="#CECECE"/>
</linearGradient>
<linearGradient id="paint19_linear_3_2456" x1="526.952" y1="204.324" x2="586.982" y2="830.455" gradientUnits="userSpaceOnUse">
<stop stop-color="#D8D8D8"/>
<stop offset="1" stop-color="#CECECE"/>
</linearGradient>
<linearGradient id="paint20_linear_3_2456" x1="523.501" y1="207.645" x2="574.783" y2="834.553" gradientUnits="userSpaceOnUse">
<stop stop-color="#D8D8D8"/>
<stop offset="1" stop-color="#CECECE"/>
</linearGradient>
<linearGradient id="paint21_linear_3_2456" x1="519.951" y1="210.969" x2="562.475" y2="838.532" gradientUnits="userSpaceOnUse">
<stop stop-color="#D8D8D8"/>
<stop offset="1" stop-color="#CECECE"/>
</linearGradient>
<linearGradient id="paint22_linear_3_2456" x1="516.301" y1="214.298" x2="550.059" y2="842.394" gradientUnits="userSpaceOnUse">
<stop stop-color="#D8D8D8"/>
<stop offset="1" stop-color="#CECECE"/>
</linearGradient>
<linearGradient id="paint23_linear_3_2456" x1="512.552" y1="217.627" x2="537.537" y2="846.133" gradientUnits="userSpaceOnUse">
<stop stop-color="#D8D8D8"/>
<stop offset="1" stop-color="#CECECE"/>
</linearGradient>
</defs>
</svg>
