<svg width="277" height="369" viewBox="0 0 277 369" fill="none" xmlns="http://www.w3.org/2000/svg">
<g filter="url(#filter0_dddd_3_2532)">
<circle cx="73" cy="73" r="73" transform="matrix(-1 0 0 1 244 145)" fill="white"/>
<circle cx="73" cy="73" r="73" transform="matrix(-1 0 0 1 244 145)" fill="url(#paint0_linear_3_2532)" fill-opacity="0.38"/>
<circle cx="73" cy="73" r="73" transform="matrix(-1 0 0 1 244 145)" fill="url(#paint1_radial_3_2532)" fill-opacity="0.99"/>
<circle cx="51.5" cy="51.5" r="51.5" transform="matrix(-1 0 0 1 160 6)" fill="white"/>
<circle cx="51.5" cy="51.5" r="51.5" transform="matrix(-1 0 0 1 160 6)" fill="url(#paint2_linear_3_2532)" fill-opacity="0.38"/>
<circle cx="51.5" cy="51.5" r="51.5" transform="matrix(-1 0 0 1 160 6)" fill="url(#paint3_radial_3_2532)" fill-opacity="0.99"/>
<circle cx="23.5" cy="23.5" r="23.5" transform="matrix(-1 0 0 1 80 121)" fill="white"/>
<circle cx="23.5" cy="23.5" r="23.5" transform="matrix(-1 0 0 1 80 121)" fill="url(#paint4_linear_3_2532)" fill-opacity="0.38"/>
<circle cx="23.5" cy="23.5" r="23.5" transform="matrix(-1 0 0 1 80 121)" fill="url(#paint5_radial_3_2532)" fill-opacity="0.99"/>
</g>
<defs>
<filter id="filter0_dddd_3_2532" x="0" y="0" width="277" height="405" filterUnits="userSpaceOnUse" color-interpolation-filters="sRGB">
<feFlood flood-opacity="0" result="BackgroundImageFix"/>
<feColorMatrix in="SourceAlpha" type="matrix" values="0 0 0 0 0 0 0 0 0 0 0 0 0 0 0 0 0 0 127 0" result="hardAlpha"/>
<feOffset dy="5"/>
<feGaussianBlur stdDeviation="5.5"/>
<feColorMatrix type="matrix" values="0 0 0 0 0 0 0 0 0 0 0 0 0 0 0 0 0 0 0.14 0"/>
<feBlend mode="normal" in2="BackgroundImageFix" result="effect1_dropShadow_3_2532"/>
<feColorMatrix in="SourceAlpha" type="matrix" values="0 0 0 0 0 0 0 0 0 0 0 0 0 0 0 0 0 0 127 0" result="hardAlpha"/>
<feOffset dy="20"/>
<feGaussianBlur stdDeviation="10"/>
<feColorMatrix type="matrix" values="0 0 0 0 0 0 0 0 0 0 0 0 0 0 0 0 0 0 0.12 0"/>
<feBlend mode="normal" in2="effect1_dropShadow_3_2532" result="effect2_dropShadow_3_2532"/>
<feColorMatrix in="SourceAlpha" type="matrix" values="0 0 0 0 0 0 0 0 0 0 0 0 0 0 0 0 0 0 127 0" result="hardAlpha"/>
<feOffset dy="46"/>
<feGaussianBlur stdDeviation="13.5"/>
<feColorMatrix type="matrix" values="0 0 0 0 0 0 0 0 0 0 0 0 0 0 0 0 0 0 0.07 0"/>
<feBlend mode="normal" in2="effect2_dropShadow_3_2532" result="effect3_dropShadow_3_2532"/>
<feColorMatrix in="SourceAlpha" type="matrix" values="0 0 0 0 0 0 0 0 0 0 0 0 0 0 0 0 0 0 127 0" result="hardAlpha"/>
<feOffset dy="81"/>
<feGaussianBlur stdDeviation="16.5"/>
<feColorMatrix type="matrix" values="0 0 0 0 0 0 0 0 0 0 0 0 0 0 0 0 0 0 0.02 0"/>
<feBlend mode="normal" in2="effect3_dropShadow_3_2532" result="effect4_dropShadow_3_2532"/>
<feBlend mode="normal" in="SourceGraphic" in2="effect4_dropShadow_3_2532" result="shape"/>
</filter>
<linearGradient id="paint0_linear_3_2532" x1="122.8" y1="19.2" x2="57" y2="85.8" gradientUnits="userSpaceOnUse">
<stop stop-color="white"/>
<stop offset="1" stop-color="#7D7D7D"/>
</linearGradient>
<radialGradient id="paint1_radial_3_2532" cx="0" cy="0" r="1" gradientUnits="userSpaceOnUse" gradientTransform="translate(118 19.2) rotate(129.748) scale(101.969)">
<stop stop-color="white"/>
<stop offset="1" stop-color="#FAFAFA" stop-opacity="0"/>
</radialGradient>
<linearGradient id="paint2_linear_3_2532" x1="86.6329" y1="13.5452" x2="40.2123" y2="60.5301" gradientUnits="userSpaceOnUse">
<stop stop-color="white"/>
<stop offset="1" stop-color="#7D7D7D"/>
</linearGradient>
<radialGradient id="paint3_radial_3_2532" cx="0" cy="0" r="1" gradientUnits="userSpaceOnUse" gradientTransform="translate(83.2466 13.5452) rotate(129.748) scale(71.9368)">
<stop stop-color="white"/>
<stop offset="1" stop-color="#FAFAFA" stop-opacity="0"/>
</radialGradient>
<linearGradient id="paint4_linear_3_2532" x1="39.5315" y1="6.18082" x2="18.3493" y2="27.6205" gradientUnits="userSpaceOnUse">
<stop stop-color="white"/>
<stop offset="1" stop-color="#7D7D7D"/>
</linearGradient>
<radialGradient id="paint5_radial_3_2532" cx="0" cy="0" r="1" gradientUnits="userSpaceOnUse" gradientTransform="translate(37.9863 6.18082) rotate(129.748) scale(32.8255)">
<stop stop-color="white"/>
<stop offset="1" stop-color="#FAFAFA" stop-opacity="0"/>
</radialGradient>
</defs>
</svg>
