<svg width="142" height="137" viewBox="0 0 142 137" fill="none" xmlns="http://www.w3.org/2000/svg">
<path d="M114.795 2H27.0801C20.4285 2 14.0492 4.64236 9.3458 9.3458C4.64236 14.0492 2 20.4285 2 27.0801V89.7148C2 96.3664 4.64236 102.746 9.3458 107.449C14.0492 112.153 20.4285 114.795 27.0801 114.795H52.1602L70.9375 133.572L89.7148 114.795H114.795C121.447 114.795 127.826 112.153 132.529 107.449C137.233 102.746 139.875 96.3664 139.875 89.7148V27.0801C139.875 20.4285 137.233 14.0492 132.529 9.3458C127.826 4.64236 121.447 2 114.795 2Z" stroke="black" stroke-width="4" stroke-miterlimit="10"/>
<path d="M108.558 83.4776H60.1702L65.4225 75.2051L84.3311 45.8574L108.558 83.4776Z" fill="black"/>
<path d="M65.4226 75.205L60.1702 83.4775H33.3174L52.1603 55.246L65.4226 75.205Z" fill="black"/>
<path d="M55.246 45.8573C60.4312 45.8573 64.6347 41.6539 64.6347 36.4687C64.6347 31.2835 60.4312 27.0801 55.246 27.0801C50.0609 27.0801 45.8574 31.2835 45.8574 36.4687C45.8574 41.6539 50.0609 45.8573 55.246 45.8573Z" fill="black"/>
</svg>
