<svg width="741" height="320" viewBox="0 0 741 320" fill="none" xmlns="http://www.w3.org/2000/svg">
<g filter="url(#filter0_ddddd_3_2348)">
<path d="M26 194.31L26 179.73C26 174.81 27.32 171.12 29.96 168.66C32.6 166.2 36.47 164.97 41.57 164.97L47.78 164.97C52.88 164.97 56.75 166.2 59.39 168.66C62.03 171.12 63.35 174.81 63.35 179.73L63.35 184.41L89 184.41L89 194.31L26 194.31ZM54.35 179.73C54.35 178.11 53.9 176.91 53 176.13C52.1 175.29 50.57 174.87 48.41 174.87L40.94 174.87C38.78 174.87 37.25 175.29 36.35 176.13C35.45 176.91 35 178.11 35 179.73L35 184.41L54.35 184.41L54.35 179.73ZM26 159.593L26 149.693L89 149.693L89 159.593L26 159.593ZM56.78 133.549L26 144.439L26 133.999L46.34 127.339L46.34 127.159L26 120.319L26 110.959L56.78 121.849L89 110.419L89 120.859L67.04 128.059L67.04 128.239L89 135.619L89 144.979L56.78 133.549ZM26 105.716L26 78.7162L35 78.7162L35 95.8162L51.65 95.8162L51.65 82.2262L60.65 82.2262L60.65 95.8162L80 95.8162L80 78.7162L89 78.7162L89 105.716L26 105.716ZM26 73.0209L26 63.1209L80 63.1209L80 46.8309L89 46.8309L89 73.0209L26 73.0209Z" fill="white"/>
<path d="M95.4 195.622L95.4 186.226C95.4 183.055 96.2507 180.677 97.952 179.092C99.6533 177.507 102.147 176.714 105.434 176.714L109.436 176.714C112.723 176.714 115.217 177.507 116.918 179.092C118.619 180.677 119.47 183.055 119.47 186.226L119.47 189.242L136 189.242L136 195.622L95.4 195.622ZM113.67 186.226C113.67 185.182 113.38 184.409 112.8 183.906C112.22 183.365 111.234 183.094 109.842 183.094L105.028 183.094C103.636 183.094 102.65 183.365 102.07 183.906C101.49 184.409 101.2 185.182 101.2 186.226L101.2 189.242L113.67 189.242L113.67 186.226ZM95.4 173.249L95.4 155.849L101.2 155.849L101.2 166.869L111.93 166.869L111.93 158.111L117.73 158.111L117.73 166.869L130.2 166.869L130.2 155.849L136 155.849L136 173.249L95.4 173.249ZM95.4 152.179L95.4 142.725C95.4 139.438 96.1733 137.041 97.72 135.533C99.228 134.025 101.567 133.271 104.738 133.271L107.232 133.271C111.447 133.271 114.115 134.663 115.236 137.447L115.352 137.447C115.816 135.9 116.763 134.817 118.194 134.199C119.625 133.541 121.539 133.213 123.936 133.213L131.07 133.213C132.23 133.213 133.177 133.174 133.912 133.097C134.608 133.019 135.304 132.826 136 132.517L136 139.013C135.343 139.245 134.724 139.399 134.144 139.477C133.564 139.554 132.52 139.593 131.012 139.593L123.588 139.593C121.732 139.593 120.437 139.902 119.702 140.521C118.967 141.101 118.6 142.125 118.6 143.595L118.6 145.799L136 145.799L136 152.179L95.4 152.179ZM112.8 143.479C112.8 142.203 112.471 141.255 111.814 140.637C111.157 139.979 110.055 139.651 108.508 139.651L105.376 139.651C103.907 139.651 102.843 139.921 102.186 140.463C101.529 140.965 101.2 141.777 101.2 142.899L101.2 145.799L112.8 145.799L112.8 143.479ZM95.4 128.786L95.4 111.908L101.2 111.908L101.2 122.406L112.51 122.406L112.51 114.17L118.31 114.17L118.31 122.406L136 122.406L136 128.786L95.4 128.786ZM95.4 108.849L95.4 91.4486L101.2 91.4486L101.2 102.469L111.93 102.469L111.93 93.7106L117.73 93.7106L117.73 102.469L130.2 102.469L130.2 91.4486L136 91.4486L136 108.849L95.4 108.849ZM136.58 78.7882C136.58 81.8429 135.71 84.1822 133.97 85.8062C132.23 87.3916 129.775 88.1842 126.604 88.1842L104.796 88.1842C101.625 88.1842 99.17 87.3916 97.43 85.8062C95.69 84.1822 94.82 81.8429 94.82 78.7882C94.82 75.7336 95.69 73.4136 97.43 71.8282C99.17 70.2042 101.625 69.3922 104.796 69.3922L109.088 69.3922L109.088 75.4242L104.39 75.4242C101.877 75.4242 100.62 76.4876 100.62 78.6142C100.62 80.7409 101.877 81.8042 104.39 81.8042L127.068 81.8042C129.543 81.8042 130.78 80.7409 130.78 78.6142C130.78 76.4876 129.543 75.4242 127.068 75.4242L120.862 75.4242L120.862 69.3922L126.604 69.3922C129.775 69.3922 132.23 70.2042 133.97 71.8282C135.71 73.4136 136.58 75.7336 136.58 78.7882ZM101.2 60.5871L101.2 67.2571L95.4 67.2571L95.4 47.5371L101.2 47.5371L101.2 54.2071L136 54.2071L136 60.5871L101.2 60.5871Z" fill="white"/>
<path d="M182.697 200.2C170.964 200.2 162.017 196.9 155.857 190.3C149.697 183.553 146.617 173.947 146.617 161.48V80.52C146.617 68.0533 149.697 58.52 155.857 51.92C162.017 45.1733 170.964 41.8 182.697 41.8C194.431 41.8 203.377 45.1733 209.537 51.92C215.697 58.52 218.777 68.0533 218.777 80.52V93.72H195.897V78.98C195.897 68.86 191.717 63.8 183.357 63.8C174.997 63.8 170.817 68.86 170.817 78.98V163.24C170.817 173.213 174.997 178.2 183.357 178.2C191.717 178.2 195.897 173.213 195.897 163.24V133.1H183.797V111.1H218.777V161.48C218.777 173.947 215.697 183.553 209.537 190.3C203.377 196.9 194.431 200.2 182.697 200.2ZM253.015 44H285.795L310.875 198H286.675L282.275 167.42V167.86H254.775L250.375 198H227.935L253.015 44ZM279.415 146.96L268.635 70.84H268.195L257.635 146.96H279.415ZM322.616 44H346.816V176H386.636V198H322.616V44ZM398.241 44H422.441V176H462.261V198H398.241V44ZM473.866 44H539.866V66H498.066V106.7H531.286V128.7H498.066V176H539.866V198H473.866V44ZM553.788 44H589.648C602.114 44 611.208 46.9333 616.928 52.8C622.648 58.52 625.508 67.3933 625.508 79.42V88.88C625.508 104.867 620.228 114.987 609.668 119.24V119.68C615.534 121.44 619.641 125.033 621.988 130.46C624.481 135.887 625.728 143.147 625.728 152.24V179.3C625.728 183.7 625.874 187.293 626.168 190.08C626.461 192.72 627.194 195.36 628.368 198H603.728C602.848 195.507 602.261 193.16 601.968 190.96C601.674 188.76 601.528 184.8 601.528 179.08V150.92C601.528 143.88 600.354 138.967 598.008 136.18C595.808 133.393 591.921 132 586.348 132H577.988V198H553.788V44ZM586.788 110C591.628 110 595.221 108.753 597.568 106.26C600.061 103.767 601.308 99.5867 601.308 93.72V81.84C601.308 76.2667 600.281 72.2333 598.228 69.74C596.321 67.2467 593.241 66 588.988 66H577.988V110H586.788ZM661.301 132.44L632.041 44H657.781L674.281 100.54H674.721L691.221 44H714.761L685.501 132.44V198H661.301V132.44Z" fill="white"/>
</g>
<defs>
<filter id="filter0_ddddd_3_2348" x="0" y="37.8" width="740.761" height="281.4" filterUnits="userSpaceOnUse" color-interpolation-filters="sRGB">
<feFlood flood-opacity="0" result="BackgroundImageFix"/>
<feColorMatrix in="SourceAlpha" type="matrix" values="0 0 0 0 0 0 0 0 0 0 0 0 0 0 0 0 0 0 127 0" result="hardAlpha"/>
<feOffset dy="4"/>
<feGaussianBlur stdDeviation="4"/>
<feColorMatrix type="matrix" values="0 0 0 0 0 0 0 0 0 0 0 0 0 0 0 0 0 0 0.31 0"/>
<feBlend mode="normal" in2="BackgroundImageFix" result="effect1_dropShadow_3_2348"/>
<feColorMatrix in="SourceAlpha" type="matrix" values="0 0 0 0 0 0 0 0 0 0 0 0 0 0 0 0 0 0 127 0" result="hardAlpha"/>
<feOffset dy="15"/>
<feGaussianBlur stdDeviation="7.5"/>
<feColorMatrix type="matrix" values="0 0 0 0 0 0 0 0 0 0 0 0 0 0 0 0 0 0 0.27 0"/>
<feBlend mode="normal" in2="effect1_dropShadow_3_2348" result="effect2_dropShadow_3_2348"/>
<feColorMatrix in="SourceAlpha" type="matrix" values="0 0 0 0 0 0 0 0 0 0 0 0 0 0 0 0 0 0 127 0" result="hardAlpha"/>
<feOffset dy="33"/>
<feGaussianBlur stdDeviation="10"/>
<feColorMatrix type="matrix" values="0 0 0 0 0 0 0 0 0 0 0 0 0 0 0 0 0 0 0.16 0"/>
<feBlend mode="normal" in2="effect2_dropShadow_3_2348" result="effect3_dropShadow_3_2348"/>
<feColorMatrix in="SourceAlpha" type="matrix" values="0 0 0 0 0 0 0 0 0 0 0 0 0 0 0 0 0 0 127 0" result="hardAlpha"/>
<feOffset dy="59"/>
<feGaussianBlur stdDeviation="12"/>
<feColorMatrix type="matrix" values="0 0 0 0 0 0 0 0 0 0 0 0 0 0 0 0 0 0 0.05 0"/>
<feBlend mode="normal" in2="effect3_dropShadow_3_2348" result="effect4_dropShadow_3_2348"/>
<feColorMatrix in="SourceAlpha" type="matrix" values="0 0 0 0 0 0 0 0 0 0 0 0 0 0 0 0 0 0 127 0" result="hardAlpha"/>
<feOffset dy="93"/>
<feGaussianBlur stdDeviation="13"/>
<feColorMatrix type="matrix" values="0 0 0 0 0 0 0 0 0 0 0 0 0 0 0 0 0 0 0.01 0"/>
<feBlend mode="normal" in2="effect4_dropShadow_3_2348" result="effect5_dropShadow_3_2348"/>
<feBlend mode="normal" in="SourceGraphic" in2="effect5_dropShadow_3_2348" result="shape"/>
</filter>
</defs>
</svg>
