<svg width="84" height="45" viewBox="0 0 84 45" fill="none" xmlns="http://www.w3.org/2000/svg">
<mask id="path-1-inside-1_389_27" fill="white">
<path fill-rule="evenodd" clip-rule="evenodd" d="M45.7942 6L41.8971 0L38 6H45.7942ZM5 6C2.23858 6 0 8.23858 0 11V40C0 42.7614 2.23858 45 5 45H79C81.7614 45 84 42.7614 84 40V11C84 8.23858 81.7614 6 79 6H5Z"/>
</mask>
<path fill-rule="evenodd" clip-rule="evenodd" d="M45.7942 6L41.8971 0L38 6H45.7942ZM5 6C2.23858 6 0 8.23858 0 11V40C0 42.7614 2.23858 45 5 45H79C81.7614 45 84 42.7614 84 40V11C84 8.23858 81.7614 6 79 6H5Z" fill="#161616"/>
<path d="M41.8971 0L42.7357 -0.544705L41.8971 -1.83586L41.0585 -0.544705L41.8971 0ZM45.7942 6V7H47.6362L46.6329 5.45529L45.7942 6ZM38 6L37.1614 5.45529L36.1581 7H38V6ZM41.0585 0.544705L44.9556 6.5447L46.6329 5.45529L42.7357 -0.544705L41.0585 0.544705ZM38.8386 6.5447L42.7357 0.544705L41.0585 -0.544705L37.1614 5.45529L38.8386 6.5447ZM45.7942 5H38V7H45.7942V5ZM1 11C1 8.79086 2.79086 7 5 7V5C1.68629 5 -1 7.68629 -1 11H1ZM1 40V11H-1V40H1ZM5 44C2.79086 44 1 42.2091 1 40H-1C-1 43.3137 1.68629 46 5 46V44ZM79 44H5V46H79V44ZM83 40C83 42.2091 81.2091 44 79 44V46C82.3137 46 85 43.3137 85 40H83ZM83 11V40H85V11H83ZM79 7C81.2091 7 83 8.79086 83 11H85C85 7.68629 82.3137 5 79 5V7ZM5 7H79V5H5V7Z" fill="#444444" mask="url(#path-1-inside-1_389_27)"/>
</svg>
