<svg width="14" height="14" viewBox="0 0 14 14" fill="none" xmlns="http://www.w3.org/2000/svg">
<path d="M10.8171 1H3.18286C2.60393 1 2.04871 1.241 1.63934 1.66997C1.22998 2.09895 1 2.68076 1 3.28743V9C1 9.60666 1.22998 10.1885 1.63934 10.6175C2.04871 11.0464 2.60393 11.2874 3.18286 11.2874H5.36571L7 13L8.63429 11.2874H10.8171C11.3961 11.2874 11.9513 11.0464 12.3607 10.6175C12.77 10.1885 13 9.60666 13 9V3.28743C13 2.68076 12.77 2.09895 12.3607 1.66997C11.9513 1.241 11.3961 1 10.8171 1Z" fill="white" stroke="white" stroke-miterlimit="10"/>
</svg>
