<svg width="13" height="15" viewBox="0 0 13 15" fill="none" xmlns="http://www.w3.org/2000/svg">
<path fill-rule="evenodd" clip-rule="evenodd" d="M9.896 4.00794C9.976 4.08261 10.0747 4.11994 10.192 4.11994C10.3147 4.11994 10.4133 4.08261 10.488 4.00794C10.5627 3.92794 10.6 3.82927 10.6 3.71194V2.63994H11.672C11.784 2.63994 11.88 2.59994 11.96 2.51994C12.0453 2.43994 12.088 2.34127 12.088 2.22394C12.088 2.11194 12.0453 2.01594 11.96 1.93594C11.88 1.85594 11.784 1.81594 11.672 1.81594H10.6V0.743939C10.6 0.626606 10.5627 0.530605 10.488 0.455939C10.4133 0.375939 10.3147 0.335938 10.192 0.335938C10.0853 0.335938 9.98933 0.375939 9.904 0.455939C9.824 0.535939 9.784 0.631939 9.784 0.743939V1.81594H8.712C8.59467 1.81594 8.496 1.85594 8.416 1.93594C8.34133 2.01061 8.304 2.10661 8.304 2.22394C8.304 2.34127 8.34133 2.43994 8.416 2.51994C8.496 2.59994 8.59467 2.63994 8.712 2.63994H9.784V3.71194C9.784 3.82927 9.82133 3.92794 9.896 4.00794ZM8 4.99994C8 6.65679 6.65685 7.99994 5 7.99994C3.34315 7.99994 2 6.65679 2 4.99994C2 3.34308 3.34315 1.99994 5 1.99994C6.65685 1.99994 8 3.34308 8 4.99994ZM10 14.4999C10 13.0412 9.47322 11.6423 8.53553 10.6109C7.59785 9.5794 6.32608 8.99994 5 8.99994C3.67392 8.99994 2.40215 9.5794 1.46447 10.6109C0.526785 11.6423 0 13.0412 0 14.4999L5 14.4999H10Z" fill="white"/>
</svg>
