<svg width="58" height="57" viewBox="0 0 58 57" fill="none" xmlns="http://www.w3.org/2000/svg">
<path d="M29.0675 56.8C27.3075 56.8 25.8275 56.24 24.6275 55.12C23.5075 53.92 22.9475 52.44 22.9475 50.68V34.6H6.8675C5.1075 34.6 3.6275 34 2.4275 32.8C1.3075 31.6 0.7475 30.12 0.7475 28.36C0.7475 26.6 1.3075 25.16 2.4275 24.04C3.6275 22.84 5.1075 22.24 6.8675 22.24H22.9475V6.16C22.9475 4.48 23.5475 3.04 24.7475 1.84C26.0275 0.639999 27.4675 0.0399995 29.0675 0.0399995C30.9075 0.0399995 32.3875 0.639999 33.5075 1.84C34.6275 2.96 35.1875 4.4 35.1875 6.16V22.24H51.2675C52.9475 22.24 54.3875 22.84 55.5875 24.04C56.8675 25.24 57.5075 26.68 57.5075 28.36C57.5075 30.12 56.8675 31.6 55.5875 32.8C54.3875 34 52.9475 34.6 51.2675 34.6H35.1875V50.68C35.1875 52.44 34.6275 53.92 33.5075 55.12C32.3875 56.24 30.9075 56.8 29.0675 56.8Z" fill="white"/>
</svg>
