<svg width="17" height="16" viewBox="0 0 17 16" fill="none" xmlns="http://www.w3.org/2000/svg">
<path d="M11.7677 1.35169C11.0926 1.35464 10.4286 1.53883 9.83536 1.88779C9.24206 2.23676 8.73789 2.7396 8.36794 3.35134C7.88332 2.56258 7.17773 1.9632 6.35505 1.64143C5.53236 1.31966 4.63605 1.29252 3.79805 1.56398C2.96005 1.83544 2.22465 2.39118 1.7001 3.14937C1.17556 3.90756 0.889581 4.82815 0.884277 5.77562C0.884277 12.4077 8.36794 14.6158 8.36794 14.6158C8.36794 14.6158 15.8516 12.4077 15.8516 5.77562C15.8525 5.19438 15.7475 4.61865 15.5426 4.08145C15.3377 3.54426 15.0369 3.05616 14.6575 2.64516C14.2781 2.23416 13.8275 1.90833 13.3316 1.68637C12.8357 1.46441 12.3042 1.35067 11.7677 1.35169Z" stroke="#151515" stroke-miterlimit="10"/>
<path d="M11.7677 4.30141C11.9468 4.30039 12.1242 4.33783 12.2898 4.41158C12.4554 4.48532 12.6058 4.59391 12.7324 4.73104C12.859 4.86818 12.9593 5.03115 13.0273 5.21052C13.0954 5.3899 13.13 5.58212 13.129 5.77606C13.1189 6.41762 12.9908 7.05055 12.7522 7.63783C12.5135 8.22511 12.1692 8.75493 11.7392 9.1963" stroke="#151515" stroke-miterlimit="10"/>
</svg>
