<svg width="20" height="22" viewBox="0 0 20 22" fill="none" xmlns="http://www.w3.org/2000/svg">
<path fill-rule="evenodd" clip-rule="evenodd" d="M12 5.5C12 7.70914 10.2091 9.5 8 9.5C5.79089 9.5 4 7.70914 4 5.5C4 3.29086 5.79089 1.5 8 1.5C10.2091 1.5 12 3.29086 12 5.5ZM10.3698 9.9039C11.9358 9.05942 13 7.40399 13 5.5C13 2.73859 10.7615 0.5 8 0.5C5.23853 0.5 3 2.73859 3 5.5C3 7.40399 4.06421 9.05942 5.63025 9.9039C4.40088 10.3329 3.27002 11.0933 2.34314 12.136C1.05383 13.5865 0.250122 15.481 0.0495605 17.5C0.0167236 17.8305 0 18.1643 0 18.5H1H8H8.5V21V21.5H9H19H19.5V21V11V10.5H19H11.665C11.2496 10.2592 10.8162 10.0597 10.3698 9.9039ZM8.5 10.5205C8.33398 10.5069 8.16711 10.5 8 10.5C6.18408 10.5 4.41492 11.3105 3.09058 12.8004C1.96997 14.0611 1.25171 15.717 1.05493 17.5H8H8.5V11V10.5205ZM9.5 18.431V11.5H18.5V18.4292L17.0825 17.0087L16.7289 16.6544L16.375 17.0084L14.9092 18.4742L12.5342 16.1033L12.1807 15.7504L11.8274 16.1036L9.5 18.431ZM9.5 19.8452V20.5H18.5V19.8449L16.7281 18.0694L15.2631 19.5345L14.9098 19.8878L14.5563 19.5348L12.1813 17.1639L9.5 19.8452ZM14.9095 13.7715C14.6833 13.7715 14.5 13.9548 14.5 14.181C14.5 14.4072 14.6833 14.5905 14.9095 14.5905C15.1357 14.5905 15.3191 14.4072 15.3191 14.181C15.3191 13.9548 15.1357 13.7715 14.9095 13.7715ZM13.5 14.181C13.5 13.4025 14.1311 12.7715 14.9095 12.7715C15.688 12.7715 16.3191 13.4025 16.3191 14.181C16.3191 14.9594 15.688 15.5905 14.9095 15.5905C14.1311 15.5905 13.5 14.9594 13.5 14.181Z" fill="white"/>
</svg>
