<svg width="42" height="22" viewBox="0 0 42 22" fill="none" xmlns="http://www.w3.org/2000/svg">
<path d="M1 1C1 6.44762 6.44762 21 21 21H24.6381V15.5524H26.5429C28.8947 16.7232 30.8006 18.6291 31.9714 20.981H41V19.1905C39.0952 16.3333 36.1429 14.3333 33.7238 11.9143C36.1047 9.53286 37.7963 6.55115 38.619 3.28571L39.1905 1H31.9143L31.7238 1.57143C30.6538 4.77132 28.8464 7.67482 26.4476 10.0476H24.6381V1H15.5524V2.80952L17.3619 4.71429V11.9524C15.169 11.0981 13.2932 9.5877 11.9909 7.62742C10.6886 5.66714 10.0233 3.35261 10.0857 1H1Z" stroke="#777777" stroke-width="2" stroke-miterlimit="10"/>
</svg>
