<svg width="34" height="34" viewBox="0 0 34 34" fill="none" xmlns="http://www.w3.org/2000/svg">
<rect width="33.9026" height="33.9026" rx="5" fill="#151515"/>
<path fill-rule="evenodd" clip-rule="evenodd" d="M16.19 6.78052C17.0955 6.78052 17.9922 6.95887 18.8288 7.3054C19.6653 7.65193 20.4255 8.15985 21.0658 8.80015C21.7061 9.44045 22.214 10.2006 22.5605 11.0372C22.9071 11.8738 23.0854 12.7704 23.0854 13.676C23.0854 14.5815 22.9071 15.4781 22.5605 16.3147C22.214 17.1513 21.7061 17.9115 21.0658 18.5518C20.4255 19.1921 19.6653 19.7 18.8287 20.0465C17.9922 20.3931 17.0955 20.5714 16.19 20.5714V16.0894C16.5068 16.0894 16.8205 16.027 17.1133 15.9057C17.4061 15.7844 17.6721 15.6067 17.8962 15.3826C18.1203 15.1585 18.2981 14.8924 18.4194 14.5996C18.5407 14.3068 18.6031 13.993 18.6031 13.676C18.6031 13.3591 18.5407 13.0453 18.4194 12.7525C18.2981 12.4596 18.1203 12.1936 17.8962 11.9695C17.6721 11.7454 17.4061 11.5676 17.1133 11.4463C16.8205 11.3251 16.5068 11.2627 16.19 11.2626V6.78052ZM16.19 11.2626H16.1897V13.676V16.0894H16.19L16.19 13.676V11.2626ZM15.7962 6.93457C13.2429 6.93457 11.1731 9.00439 11.1731 11.5577V26.9679C13.7264 26.9679 15.7962 24.8981 15.7962 22.3449V6.93457Z" fill="#EAEAEA"/>
</svg>
